<svg width="200" height="200" viewBox="0 0 200 200" fill="none" xmlns="http://www.w3.org/2000/svg">
<mask id="mask0" mask-type="alpha" maskUnits="userSpaceOnUse" x="0" y="0" width="200" height="200">
<rect width="200" height="200" fill="white"/>
</mask>
<g mask="url(#mask0)">
<g filter="url(#filter0_d)">
<rect width="200" height="200" fill="white"/>
</g>
<path d="M157.08 55.3255C160.506 51.8998 160.506 46.3458 157.08 42.9201C153.654 39.4945 148.1 39.4945 144.674 42.9201L157.08 55.3255ZM42.9201 144.674C39.4945 148.1 39.4945 153.654 42.9201 157.08C46.3458 160.506 51.8998 160.506 55.3255 157.08L42.9201 144.674ZM144.674 42.9201L42.9201 144.674L55.3255 157.08L157.08 55.3255L144.674 42.9201Z" fill="#6A8FCD"/>
<path d="M129.01 116.604C125.584 113.179 120.03 113.179 116.604 116.604C113.179 120.03 113.179 125.584 116.604 129.01L129.01 116.604ZM186.78 199.185C190.205 202.611 195.759 202.611 199.185 199.185C202.611 195.759 202.611 190.205 199.185 186.78L186.78 199.185ZM116.604 129.01L186.78 199.185L199.185 186.78L129.01 116.604L116.604 129.01Z" fill="#6A8FCD"/>
<path d="M55.3255 42.9201C51.8998 39.4945 46.3458 39.4945 42.9201 42.9201C39.4945 46.3458 39.4945 51.8998 42.9201 55.3255L55.3255 42.9201ZM92.0429 104.448C95.4686 107.874 101.023 107.874 104.448 104.448C107.874 101.023 107.874 95.4686 104.448 92.0429L92.0429 104.448ZM42.9201 55.3255L92.0429 104.448L104.448 92.0429L55.3255 42.9201L42.9201 55.3255Z" fill="#6A8FCD"/>
</g>
<defs>
<filter id="filter0_d" x="-35.0877" y="-24.5614" width="270.175" height="270.175" filterUnits="userSpaceOnUse" color-interpolation-filters="sRGB">
<feFlood flood-opacity="0" result="BackgroundImageFix"/>
<feColorMatrix in="SourceAlpha" type="matrix" values="0 0 0 0 0 0 0 0 0 0 0 0 0 0 0 0 0 0 127 0"/>
<feOffset dy="10.5263"/>
<feGaussianBlur stdDeviation="17.5439"/>
<feColorMatrix type="matrix" values="0 0 0 0 0 0 0 0 0 0 0 0 0 0 0 0 0 0 0.15 0"/>
<feBlend mode="normal" in2="BackgroundImageFix" result="effect1_dropShadow"/>
<feBlend mode="normal" in="SourceGraphic" in2="effect1_dropShadow" result="shape"/>
</filter>
</defs>
</svg>
